ModelForces
version=1
nRows=4
nColumns=155
inDegrees=no

This file contains the forces exerted on a model during a simulation.

A force is a generalized force, meaning that it can be either a force (N) or a torque (Nm).

Units are S.I. units (second, meters, Newtons, ...)
Angles are in degrees.

endheader
time	glut_med1_r	glut_med2_r	glut_med3_r	glut_min1_r	glut_min2_r	glut_min3_r	semimem_r	semiten_r	bifemlh_r	bifemsh_r	sar_r	add_long_r	add_brev_r	add_mag1_r	add_mag2_r	add_mag3_r	tfl_r	pect_r	grac_r	glut_max1_r	glut_max2_r	glut_max3_r	iliacus_r	psoas_r	quad_fem_r	gem_r	peri_r	rect_fem_r	vas_med_r	vas_int_r	vas_lat_r	med_gas_r	lat_gas_r	soleus_r	tib_post_r	flex_dig_r	flex_hal_r	tib_ant_r	per_brev_r	per_long_r	per_tert_r	ext_dig_r	ext_hal_r	glut_med1_l	glut_med2_l	glut_med3_l	glut_min1_l	glut_min2_l	glut_min3_l	semimem_l	semiten_l	bifemlh_l	bifemsh_l	sar_l	add_long_l	add_brev_l	add_mag1_l	add_mag2_l	add_mag3_l	tfl_l	pect_l	grac_l	glut_max1_l	glut_max2_l	glut_max3_l	iliacus_l	psoas_l	quad_fem_l	gem_l	peri_l	rect_fem_l	vas_med_l	vas_int_l	vas_lat_l	med_gas_l	lat_gas_l	soleus_l	tib_post_l	flex_dig_l	flex_hal_l	tib_ant_l	per_brev_l	per_long_l	per_tert_l	ext_dig_l	ext_hal_l	ercspn_r	ercspn_l	intobl_r	intobl_l	extobl_r	extobl_l	femur_lat_meniscii_r.femur_lat_r.force.X	femur_lat_meniscii_r.femur_lat_r.force.Y	femur_lat_meniscii_r.femur_lat_r.force.Z	femur_lat_meniscii_r.femur_lat_r.torque.X	femur_lat_meniscii_r.femur_lat_r.torque.Y	femur_lat_meniscii_r.femur_lat_r.torque.Z	femur_lat_meniscii_r.meniscus_lat_r.force.X	femur_lat_meniscii_r.meniscus_lat_r.force.Y	femur_lat_meniscii_r.meniscus_lat_r.force.Z	femur_lat_meniscii_r.meniscus_lat_r.torque.X	femur_lat_meniscii_r.meniscus_lat_r.torque.Y	femur_lat_meniscii_r.meniscus_lat_r.torque.Z	femur_med_meniscii_r.femur_med_r.force.X	femur_med_meniscii_r.femur_med_r.force.Y	femur_med_meniscii_r.femur_med_r.force.Z	femur_med_meniscii_r.femur_med_r.torque.X	femur_med_meniscii_r.femur_med_r.torque.Y	femur_med_meniscii_r.femur_med_r.torque.Z	femur_med_meniscii_r.meniscus_med_r.force.X	femur_med_meniscii_r.meniscus_med_r.force.Y	femur_med_meniscii_r.meniscus_med_r.force.Z	femur_med_meniscii_r.meniscus_med_r.torque.X	femur_med_meniscii_r.meniscus_med_r.torque.Y	femur_med_meniscii_r.meniscus_med_r.torque.Z	femur_med_tibia_r.tibia_upper_r.force.X	femur_med_tibia_r.tibia_upper_r.force.Y	femur_med_tibia_r.tibia_upper_r.force.Z	femur_med_tibia_r.tibia_upper_r.torque.X	femur_med_tibia_r.tibia_upper_r.torque.Y	femur_med_tibia_r.tibia_upper_r.torque.Z	femur_med_tibia_r.femur_med_r.force.X	femur_med_tibia_r.femur_med_r.force.Y	femur_med_tibia_r.femur_med_r.force.Z	femur_med_tibia_r.femur_med_r.torque.X	femur_med_tibia_r.femur_med_r.torque.Y	femur_med_tibia_r.femur_med_r.torque.Z	femur_lat_tibia_r.tibia_upper_r.force.X	femur_lat_tibia_r.tibia_upper_r.force.Y	femur_lat_tibia_r.tibia_upper_r.force.Z	femur_lat_tibia_r.tibia_upper_r.torque.X	femur_lat_tibia_r.tibia_upper_r.torque.Y	femur_lat_tibia_r.tibia_upper_r.torque.Z	femur_lat_tibia_r.femur_lat_r.force.X	femur_lat_tibia_r.femur_lat_r.force.Y	femur_lat_tibia_r.femur_lat_r.force.Z	femur_lat_tibia_r.femur_lat_r.torque.X	femur_lat_tibia_r.femur_lat_r.torque.Y	femur_lat_tibia_r.femur_lat_r.torque.Z	aACL_R	pACL_R	aPCL_R	pPCL_R	aMCL_R	mMCL_R	pMCL_R	aLCL_R	mLCL_R	pLCL_R	aPCL_L	pPCL_L	aMCL_L	aLCL_L
      0.15843667	     11.80411404	      8.57047248	      9.22088577	      3.95281348	      4.58788007	      4.98807237	      0.00000000	    161.41970844	    133.35613608	    283.33520226	    130.69880306	      8.53239376	      6.13362899	      4.40479264	      3.73920326	      6.31571582	      4.83307516	      3.33710626	     97.25669612	      5.53444059	      8.41979219	      6.32994362	     27.96176681	     19.00202895	      5.43855256	      3.72443383	      7.11768230	     87.38027811	   1107.06910533	     36.82992587	   1557.69258148	      0.00000000	      0.00000000	      0.00000000	      0.00000000	      0.00000000	      0.00000000	     45.63512450	      3.15859490	      4.76927579	     33.67902607	     42.77062824	     10.36313860	     11.80411404	      8.57047248	      9.22088577	      3.95281348	      4.58788007	      4.98807237	     14.69483600	      6.36169145	     12.71608109	     10.82506533	      2.25511542	      8.53239376	      6.13362899	      4.40479264	      3.73920326	      6.31571582	      5.54006736	      3.33710626	      2.32903882	      5.53444059	      8.41979219	      6.32994362	     27.96176681	     19.00202895	      5.43855256	      3.72443383	      7.11768230	     17.55175025	     10.08409892	     11.65565922	     12.51808261	     25.36531042	     11.78817071	     54.15340138	     51.99194987	      5.74769376	      5.64185034	     13.69148335	      7.33740867	     18.96692059	      2.93772520	      8.95626323	      2.79997743	     37.20872858	     37.20872858	     13.85366177	     13.85366177	     31.18239017	     31.18239017	     70.82055565	    139.05207616	     -2.72260108	     -1.98783448	      1.57680490	     27.07092008	    -70.82055565	   -139.05207616	      2.72260108	      3.49138387	     -1.73048335	      4.19069043	    116.20871940	    147.05787135	    -18.28347505	     10.37842202	     -2.53769889	     45.20921477	   -116.20871940	   -147.05787135	     18.28347505	     -2.74495709	      2.63102523	      4.05929435	   -562.68204562	   -717.12733040	     97.21792166	    -13.18781161	     12.64037429	     16.66574797	    562.68204562	    717.12733040	    -97.21792166	     53.57393709	    -11.97119253	    222.01901133	      0.00000000	      0.00000000	      0.00000000	      0.00000000	      0.00000000	      0.00000000	      0.00000000	      0.00000000	      0.00000000	      0.00000000	      0.00000000	      0.00000000	      0.41669932	      0.00000000	    708.07004791	    382.18598893	     57.81338374	      0.00000000	      0.00000000	      0.00000000	      0.00000000	      0.00000000	      0.00000000	      0.00000000	      0.00000001	      0.00000000
      0.15847425	     11.80199006	      8.56903019	      9.21931559	      3.95217535	      4.58718129	      4.98717679	      0.00000000	    161.27093609	    133.20959393	    282.55367689	    130.57221042	      8.53094150	      6.13264800	      4.40405444	      3.73856219	      6.31455416	      4.83592574	      3.33656366	     97.14616632	      5.53350521	      8.41836606	      6.32885518	     27.95910552	     18.99899356	      5.43765554	      3.72399444	      7.11625528	     87.34077875	    196.54537944	     36.67031004	    370.43437637	      0.00000000	      0.00000000	      0.00000000	      0.00000000	      0.00000000	      0.00000000	     45.65214568	      3.15645728	      4.76867033	     33.70740116	     42.78833305	     10.36742183	     11.80199006	      8.56903019	      9.21931559	      3.95217535	      4.58718129	      4.98717679	     14.69195182	      6.36055458	     12.71361626	     10.82327775	      2.25475306	      8.53094150	      6.13264800	      4.40405444	      3.73856219	      6.31455416	      5.53934650	      3.33656366	      2.32865802	      5.53350521	      8.41836606	      6.32885518	     27.95910552	     18.99899356	      5.43765554	      3.72399444	      7.11625528	     17.54836794	     10.08235084	     11.65360718	     12.51587910	     25.36016943	     11.78577596	     54.14250986	     51.98722106	      5.74647926	      5.64066755	     13.68889004	      7.33595495	     18.96382913	      2.93725765	      8.95447679	      2.79942489	     37.20270829	     37.20270829	     13.85124229	     13.85124229	     31.18019392	     31.18019392	     66.02435594	    139.91930319	     -2.64003605	     -2.03964970	      1.47096350	     25.10320196	    -66.02435594	   -139.91930319	      2.64003605	      3.51378135	     -1.61179170	      4.29943033	    108.49208626	    148.43315621	    -18.15400496	     10.35194361	     -2.37762404	     42.08160990	   -108.49208626	   -148.43315621	     18.15400496	     -2.76458625	      2.49175814	      4.19520423	   -552.92937191	   -722.48603604	     95.84913981	    -13.24261196	     12.43287751	     17.03975318	    552.92937191	    722.48603604	    -95.84913981	     53.11041598	    -11.76797434	    217.95936241	      0.00000000	      0.00000000	      0.00000000	      0.00000000	      0.00000000	      0.00000000	      0.00000000	      0.00000000	      0.00000000	      0.00000000	      0.00000000	      0.00000000	     -0.78736080	      0.00000000	    712.23926174	    391.92172289	     60.39807628	      0.00000000	      0.00000000	      0.00000000	      0.00000000	      0.00000000	      0.00000000	      0.00000000	      0.00000001	      0.00000000
      0.15852144	     11.79932486	      8.56722040	      9.21734531	      3.95137461	      4.58630446	      4.98605300	      0.00000000	    161.08037887	    133.01604803	    281.57013383	    130.41542107	      8.52911918	      6.13141704	      4.40312814	      3.73775778	      6.31309648	      4.84000006	      3.33588279	     97.00786998	      5.53233148	      8.41657654	      6.32748939	     27.95576613	     18.99518475	      5.43652994	      3.72344311	      7.11446457	     87.32488348	    102.98176156	     36.50968537	    176.93656578	      0.00000000	      0.00000000	      0.00000000	      0.00000000	      0.00000000	      0.00000000	     45.67342216	      3.15368579	      4.76779516	     33.73367179	     42.80993955	     10.37258489	     11.79932486	      8.56722040	      9.21734531	      3.95137461	      4.58630446	      4.98605300	     14.68833264	      6.35912803	     12.71052332	     10.82103466	      2.25429836	      8.52911918	      6.13141704	      4.40312814	      3.73775778	      6.31309648	      5.53844196	      3.33588279	      2.32818018	      5.53233148	      8.41657654	      6.32748939	     27.95576613	     18.99518475	      5.43652994	      3.72344311	      7.11446457	     17.54412374	     10.08015734	     11.65103228	     12.51311415	     25.35371814	     11.78277086	     54.12884263	     51.98128729	      5.74495523	      5.63918333	     13.68563590	      7.33413077	     18.95994986	      2.93667097	      8.95223503	      2.79873151	     37.19515392	     37.19515392	     13.84820632	     13.84820632	     31.17743808	     31.17743808	     65.39894173	    139.48070486	     -3.01106776	     -1.87862873	      1.45188596	     24.85205317	    -65.39894173	   -139.48070486	      3.01106776	      3.49728269	     -1.58160430	      4.29543134	    107.80652872	    147.75286176	    -18.85829818	     10.62052180	     -2.36990193	     41.81087253	   -107.80652872	   -147.75286176	     18.85829818	     -2.75849938	      2.50364874	      4.18155011	   -549.63784952	   -715.27407246	     96.78520491	    -13.13537034	     12.41167777	     16.84915427	    549.63784952	    715.27407246	    -96.78520491	     53.35020793	    -11.71381257	    216.68614438	      0.00000000	      0.00000000	      0.00000000	      0.00000000	      0.00000000	      0.00000000	      0.00000000	      0.00000000	      0.00000000	      0.00000000	      0.00000000	      0.00000000	     -0.29403437	      0.00000000	    713.44523568	    393.21028689	     61.26961736	      0.00000000	      0.00000000	      0.00000000	      0.00000000	      0.00000000	      0.00000000	      0.00000000	      0.00000001	      0.00000000
      0.15863669	     11.79282283	      8.56280519	      9.21253858	      3.94942110	      4.58416531	      4.98331139	      0.00000000	    160.67112115	    132.58214003	    279.55541857	    130.09794635	      8.52467343	      6.12841391	      4.40086831	      3.73579532	      6.30954033	      4.84990264	      3.33422172	     96.72124963	      5.52946805	      8.41221082	      6.32415741	     27.94761943	     18.98589286	      5.43378389	      3.72209809	      7.11009565	     87.41953398	     62.37695661	     36.30643604	     88.43038049	      0.00000000	      0.00000000	      0.00000000	      0.00000000	      0.00000000	      0.00000000	     45.71739234	      3.14757940	      4.76632289	     33.77045555	     42.86006904	     10.38432168	     11.79282283	      8.56280519	      9.21253858	      3.94942110	      4.58416531	      4.98331139	     14.67950285	      6.35564779	     12.70297753	     10.81556236	      2.25318906	      8.52467343	      6.12841391	      4.40086831	      3.73579532	      6.30954033	      5.53623523	      3.33422172	      2.32701443	      5.52946805	      8.41221082	      6.32415741	     27.94761943	     18.98589286	      5.43378389	      3.72209809	      7.11009565	     17.53376929	     10.07480611	     11.64475059	     12.50636886	     25.33797791	     11.77543887	     54.09549773	     51.96681111	      5.74123682	      5.63556215	     13.67769697	      7.32968030	     18.95048560	      2.93523972	      8.94676540	      2.79703975	     37.17672395	     37.17672395	     13.84079974	     13.84079974	     31.17071502	     31.17071502	     66.56144882	    137.78203945	     -4.10357411	     -1.39743135	      1.46257211	     25.34349736	    -66.56144882	   -137.78203945	      4.10357411	      3.44023468	     -1.56892605	      4.22055682	    109.94923912	    144.22572521	    -20.43052120	     11.17348050	     -2.42281693	     42.70708545	   -109.94923912	   -144.22572521	     20.43052120	     -2.70444846	      2.58880033	      4.04173193	   -545.90533210	   -692.49321779	    100.40478968	    -12.81550508	     12.47651628	     16.12140377	    545.90533210	    692.49321779	   -100.40478968	     54.38496103	    -11.67827793	    215.39904831	      0.00000000	      0.00000000	      0.00000000	      0.00000000	      0.00000000	      0.00000000	      0.00000000	      0.00000000	      0.00000000	      0.00000000	      0.00000000	      0.00000000	      1.74343690	      0.00000000	    714.30849757	    390.83475060	     61.95548079	      0.00000000	      0.00000000	      0.00000000	      0.00000000	      0.00000000	      0.00000000	      0.00000000	      0.00000001	      0.00000000
